# xmcd CD database file
#
# Track frame offsets:
#	225
#	12623
#	25165
#	38737
#	51864
#	66066
#	79395
#	97398
#	124513
#	141960
#	156133
#	168166
#	187309
#	204222
#	220577
#	236313
#	247823
#	265669
#
# Disc length: 3809 seconds
#
# Revision: 1
# Processed by: cddbd v1.5.2PL0 Copyright (c) Steve Scherf et al.
# Submitted via: CDex 1.77
#
DISCID=f50ede12
DTITLE=Dionne Warwick - Unknown CD for MusicBrainz and FreeDB
DYEAR=1990
DGENRE=Blues
TTITLE0=I'll Never Fall In Love Again
TTITLE1=Valley of the Dolls
TTITLE2=Forever My Love
TTITLE3=Do You Know the Way to San Jose?
TTITLE4=Love They Say Is Wonderful
TTITLE5=You're Gonna Need Me
TTITLE6=Anyone Who Had a Heart
TTITLE7=Don't Burn That Bridge
TTITLE8=Only the Strong Survive
TTITLE9=The Girl's In Love With You
TTITLE10=I Just Don't Know What To Do With Myself
TTITLE11=I Think You Need Love
TTITLE12=Raindrops Keep Falling On My Head
TTITLE13=The Windows Of The World
TTITLE14=Trains and Boats and Planes
TTITLE15=You've Lost That Loving Feeling
TTITLE16=Unknown
TTITLE17=Unknown
EXTD=YEAR: 1990
EXTT0=
EXTT1=
EXTT2=
EXTT3=
EXTT4=
EXTT5=
EXTT6=
EXTT7=
EXTT8=
EXTT9=
EXTT10=
EXTT11=
EXTT12=
EXTT13=
EXTT14=
EXTT15=
EXTT16=
EXTT17=
PLAYORDER=
